<svg width="88" height="35" viewBox="0 0 88 35" fill="none" xmlns="http://www.w3.org/2000/svg">
<path d="M9.66771 0C6.97643 0 4.67708 0.888385 2.7958 2.69128C0.940642 4.49418 0 6.74127 0 9.43255C0 12.1238 0.940642 14.3709 2.7958 16.1738C4.67708 17.9506 6.97643 18.839 9.66771 18.839C12.5158 18.839 15.1287 17.6109 16.9054 15.5206L14.7106 13.6132C13.4303 15.1287 11.7319 15.8864 9.66771 15.8864C7.83868 15.8864 6.29707 15.2854 5.06901 14.0574C3.84095 12.8293 3.23999 11.2877 3.23999 9.43255C3.23999 7.57739 3.84095 6.03578 5.06901 4.80772C6.29707 3.57966 7.83868 2.95257 9.66771 2.95257C11.6796 2.95257 13.3519 3.68418 14.6583 5.17353L16.8793 3.26612C14.9719 1.09742 12.568 0 9.66771 0Z" fill="#282828"/>
<path d="M22.6515 18.5254L24.1409 14.8935H32.2409L33.7302 18.5254H37.1792L29.5757 0.313548H26.806L19.2025 18.5254H22.6515ZM28.1909 4.7816L31.2218 12.2022H25.1599L28.1909 4.7816Z" fill="#282828"/>
<path d="M45.2912 18.5254V3.26612H50.2296V0.313548H37.0868V3.26612H42.0251V18.5254H45.2912Z" fill="#282828"/>
<path d="M61.7949 0C59.1037 0 56.8043 0.888385 54.923 2.69128C53.0679 4.49418 52.1272 6.74127 52.1272 9.43255C52.1272 12.1238 53.0679 14.3709 54.923 16.1738C56.8043 17.9506 59.1037 18.839 61.7949 18.839C64.643 18.839 67.2559 17.6109 69.0327 15.5206L66.8378 13.6132C65.5575 15.1287 63.8591 15.8864 61.7949 15.8864C59.9659 15.8864 58.4243 15.2854 57.1962 14.0574C55.9682 12.8293 55.3672 11.2877 55.3672 9.43255C55.3672 7.57739 55.9682 6.03578 57.1962 4.80772C58.4243 3.57966 59.9659 2.95257 61.7949 2.95257C63.8069 2.95257 65.4791 3.68418 66.7856 5.17353L69.0065 3.26612C67.0991 1.09742 64.6953 0 61.7949 0Z" fill="#282828"/>
<path d="M76.0068 18.5254V10.3732H84.76V18.5254H88V0.313548H84.76V7.42062H76.0068V0.313548H72.7407V18.5254H76.0068Z" fill="#282828"/>
<path d="M0 32.5827C0.576939 33.8808 1.8226 34.6676 3.51408 34.6676C5.59893 34.6676 6.71347 33.5792 6.71347 31.9664C6.71347 31.2846 6.51679 30.7339 6.13653 30.3274C5.75628 29.9209 5.14 29.5407 4.27459 29.1866L3.73699 28.9768L3.26495 28.7933C3.09449 28.7015 2.72735 28.5441 2.58311 28.4392C2.3602 28.2163 2.20286 28.0328 2.20286 27.6525C2.20286 27.0887 2.72735 26.6822 3.44852 26.6822C4.18281 26.6822 4.72041 26.9576 5.07444 27.4952L6.24143 26.6953C5.61204 25.7119 4.66796 25.2136 3.4223 25.2136C2.62245 25.2136 1.95373 25.4365 1.40301 25.8955C0.865408 26.3544 0.590051 26.9444 0.590051 27.6787C0.590051 28.4523 0.839184 29.0424 1.36367 29.4751C1.88816 29.8947 2.37332 30.1307 3.2125 30.4454C3.89434 30.6945 4.1697 30.8126 4.54995 31.0748C4.93021 31.3239 5.07444 31.5993 5.07444 32.0058C5.07444 32.5958 4.66796 33.199 3.5272 33.199C2.4651 33.199 1.70459 32.7401 1.23255 31.8091L0 32.5827Z" fill="#282828"/>
<path d="M23.0631 34.5102V26.8527H25.5413V25.371H18.9459V26.8527H21.4241V34.5102H23.0631Z" fill="#282828"/>
<path d="M38.5352 31.0092C38.5352 32.1762 38.8761 33.081 39.571 33.7104C40.266 34.3398 41.1576 34.6544 42.2459 34.6544C43.3342 34.6544 44.2128 34.3398 44.9077 33.7104C45.6027 33.081 45.9436 32.1762 45.9436 31.0092V25.371H44.3046V30.8388C44.3046 32.4122 43.5178 33.1728 42.2459 33.1728C40.9478 33.1728 40.1742 32.4122 40.1742 30.8388V25.371H38.5352V31.0092Z" fill="#282828"/>
<path d="M62.9765 34.5102C64.4844 34.5102 65.6645 34.0906 66.5037 33.2645C67.3429 32.4385 67.7625 31.337 67.7625 29.9603C67.7625 28.5835 67.3429 27.482 66.4906 26.6429C65.6514 25.7906 64.4713 25.371 62.9634 25.371H59.6984V34.5102H62.9765ZM61.3375 26.8527H62.8454C65.14 26.8527 66.1234 28.0328 66.1234 29.9603C66.1234 31.8353 65.1269 33.0285 62.8585 33.0285H61.3375V26.8527Z" fill="#282828"/>
<path d="M84.7088 34.5102V30.9699L88 25.371H86.243L83.909 29.3964L81.5619 25.371H79.7917L83.0829 30.9699V34.5102H84.7088Z" fill="#282828"/>
</svg>
