<svg width="145" height="40" viewBox="0 0 145 40" fill="none" xmlns="http://www.w3.org/2000/svg">
<path fill-rule="evenodd" clip-rule="evenodd" d="M27.254 2.56348H1.58237L0.54684 14.4613L0.45874 18.2163L8.27361 32.3946L16.4394 39.8874L25.1887 31.9136L28.9019 18.5817L27.254 2.56348Z" fill="#FFFFFE"/>
<path fill-rule="evenodd" clip-rule="evenodd" d="M16.0538 1.97559V18.2162H0.45874C0.480404 18.3448 0.504956 18.4748 0.528065 18.6033H16.0538V39.8873C16.1202 39.9234 16.1795 39.9638 16.2459 39.9999C16.3138 39.9638 16.373 39.9234 16.4394 39.8873V1.97559H16.0538Z" fill="#FFFFFE"/>
<path fill-rule="evenodd" clip-rule="evenodd" d="M8.22018 4.96673L8.2274 5.41733C8.52925 5.17325 8.9683 4.97972 9.31926 4.9104C9.12573 5.7784 8.69823 5.99937 8.23173 6.07736L8.21585 6.8096C8.59424 6.50486 9.16617 6.09469 9.60377 6.0037C9.35536 7.11144 8.82388 7.51295 8.23173 7.59671V8.3174C8.704 8.01266 9.44779 7.47829 9.99372 7.38874C9.68176 8.50948 8.98708 8.95287 8.23462 9.02219L8.23751 9.68655C8.70834 9.38037 9.44779 8.90377 9.99372 8.81855C9.69332 9.9003 8.96252 10.5574 8.23895 10.6571V11.2189C8.71267 10.9156 9.44779 10.4376 9.99372 10.3495C9.70776 11.4846 8.98563 12.097 8.23173 12.162V12.6213C8.79932 12.2848 9.72798 11.7013 10.3837 11.6045C10.0096 12.822 9.12861 13.4835 8.23173 13.5673V14.093C8.53647 13.8489 9.17483 13.5846 9.52578 13.5182C9.33803 14.3457 8.67223 14.6317 8.2274 14.7414L8.22596 15.7235C8.33139 15.7207 8.43248 15.7019 8.53936 15.6889C8.50903 15.348 8.70834 14.9985 9.15172 14.7169C9.1705 14.9769 9.02174 15.3596 8.93653 15.6167C9.17483 15.5618 9.41169 15.4968 9.64855 15.3957C9.52145 14.8989 9.68754 14.2157 10.258 13.638C10.3635 14.0222 10.2638 14.6505 10.2133 15.0664C10.4646 14.9119 10.7187 14.7458 10.9628 14.5335C10.6884 14.0612 10.739 13.3275 11.2719 12.5924C11.4293 12.9535 11.4365 13.651 11.4409 14.0699C11.6575 13.8402 11.8915 13.5817 12.098 13.3015C11.7225 12.8437 11.7081 12.4018 12.1587 11.5092C12.3146 11.8703 12.4562 12.4119 12.462 12.8336C12.6569 12.5823 12.7941 12.3743 12.9602 12.0739C12.8606 11.8414 12.9082 11.6666 13.0267 11.5179C13.1927 11.3099 13.4397 11.1323 13.6636 11.268C13.9726 11.4095 13.8167 11.7504 13.7083 11.9988C13.6318 12.175 13.4989 12.2949 13.2679 12.2877C13.109 12.5707 12.8851 12.8812 12.6901 13.1297C13.1393 13.2726 13.4599 13.3781 13.7618 13.6886C13.0974 13.963 12.7003 13.898 12.3695 13.6221C12.1543 13.9067 11.8395 14.2186 11.6156 14.454C12.0532 14.5884 12.3406 14.7111 12.6974 15.0736C11.9724 15.374 11.4365 15.2802 11.113 14.9379C10.8617 15.1531 10.6191 15.3784 10.3591 15.5315C10.7881 15.7495 11.1 15.9821 11.3585 16.3373C10.5339 16.5265 9.98939 16.2911 9.74964 15.829C9.50268 15.9286 9.27448 16.0109 9.02752 16.0586C9.26293 16.2608 9.42324 16.4153 9.54167 16.6811C8.97552 16.6666 8.65345 16.5338 8.56969 16.1857C8.45559 16.1973 8.3415 16.2738 8.2274 16.2724V17.3772L7.53127 17.0681V16.2579C7.46194 16.2492 7.29585 16.1929 7.22797 16.1814C7.12832 16.5121 6.87991 16.6406 6.33687 16.6493C6.45385 16.3821 6.52029 16.1915 6.7947 16.0499C6.5434 15.985 6.30798 15.8651 6.06102 15.7495C5.84582 16.2651 5.35622 16.4789 4.48678 16.2796C4.74097 15.9228 5.06448 15.6008 5.4992 15.452C5.27679 15.3119 5.07026 15.1747 4.85073 14.9624C4.53444 15.3191 3.9914 15.4405 3.25194 15.1314C3.55523 14.8223 3.85564 14.5754 4.31636 14.4873C4.08527 14.2576 3.87008 13.9789 3.64911 13.6987C3.31982 13.9904 2.81866 14.0843 2.13986 13.7983C2.4446 13.4893 2.79267 13.1614 3.22883 13.1658C3.09452 12.9766 2.97753 12.7585 2.83744 12.539C2.69301 12.5361 2.56881 12.539 2.42005 12.3512C2.26118 12.1476 2.10664 11.7027 2.37672 11.5626C2.54137 11.4182 2.92554 11.6291 3.05263 11.8602C3.16962 12.0739 3.12773 12.1981 3.08441 12.3483C3.22017 12.5592 3.37326 12.7715 3.51046 12.9607C3.41514 12.3498 3.58989 11.8443 3.74876 11.4846C4.29469 12.2443 4.19215 12.9 3.88886 13.368C4.1156 13.6481 4.30625 13.859 4.53155 14.0872C4.468 13.6597 4.51855 13.0127 4.67597 12.6487C5.18435 13.3535 5.25512 14.0742 5.02115 14.5479C5.23635 14.727 5.4371 14.9003 5.64796 15.0332C5.53242 14.6317 5.48043 13.963 5.58586 13.5788C6.16211 14.1652 6.33976 14.8267 6.20689 15.3264C6.45096 15.4405 6.68927 15.5358 6.93479 15.5936C6.81781 15.3553 6.70515 14.9465 6.72537 14.6866C7.15865 14.9624 7.26697 15.2816 7.25108 15.6196C7.31752 15.6253 7.50094 15.7105 7.56593 15.7105L7.55149 14.7414C7.12543 14.6317 6.48418 14.3862 6.27477 13.5644C6.67338 13.6568 7.18031 13.7536 7.55149 14.0814V13.5687C6.68927 13.4994 5.82271 12.887 5.39521 11.6681C6.14189 11.7981 6.86258 12.1533 7.55149 12.6039V12.1533C6.80047 12.0985 6.08846 11.4009 5.77361 10.4101C6.39608 10.5257 6.97523 10.8087 7.55149 11.2189V10.6528C6.84813 10.5748 6.12167 9.9754 5.77361 8.87632C6.39608 8.99475 6.97523 9.2605 7.55149 9.67211V9.03664C6.82358 8.98609 6.13612 8.58025 5.77361 7.4494C6.39608 7.56494 6.97523 7.89279 7.55149 8.3044V7.59671C6.97956 7.53172 6.43797 7.17932 6.15056 6.06436C6.65027 6.18134 7.09077 6.39509 7.55149 6.80671V6.07302C7.11099 5.99504 6.70227 5.81884 6.48129 4.95662C6.7817 5.02594 7.1471 5.04183 7.55438 5.40578L7.54715 4.96673C7.21353 4.46846 7.28863 4.25037 7.32763 3.85609C7.36373 3.49792 7.49805 3.23217 7.88367 3.21484C8.26784 3.23217 8.40071 3.49792 8.4397 3.85609C8.48159 4.25037 8.5538 4.46846 8.22018 4.96673Z" fill="#FFFFFE"/>
<path fill-rule="evenodd" clip-rule="evenodd" d="M24.2762 19.5652C24.2964 18.0228 24.3311 16.7475 24.3802 15.6773C25.2886 16.5496 25.9602 17.3714 25.8389 18.1109C25.7508 18.651 25.2265 19.1262 24.2762 19.5652ZM24.2358 13.7015C23.8516 13.3275 23.4255 12.926 22.9663 12.5014L22.9619 8.4979C23.05 8.48201 23.1121 8.4459 23.1656 8.40402L23.4718 8.55422L23.8718 9.19114L23.996 9.15214L23.9715 8.74775L24.2878 8.68276V9.3269L24.5434 9.38611C24.6806 9.10882 25.0532 8.59322 25.4114 8.43435L25.602 9.6923C24.9001 10.296 24.4741 11.0759 24.2358 13.7015ZM23.983 24.3833C23.7953 24.3053 23.6176 24.2287 23.4472 24.1522C23.1887 16.6796 22.611 15.8737 22.1012 15.53L22.3467 14.9624L22.9706 15.387L22.9692 14.389C23.0847 14.493 23.2002 14.5999 23.3143 14.701C23.5916 14.9479 23.8603 15.192 24.1188 15.4318C24.0177 17.4927 23.9787 20.3495 23.983 24.3833ZM23.8126 30.7336C23.7317 30.7336 23.6263 30.686 23.5729 30.5647L23.5714 30.5271C23.5685 30.1689 23.5656 29.8252 23.5613 29.4873C23.8429 29.5522 24.0047 29.6086 24.0004 29.9826V30.4737L24.0148 30.4679C24.0148 30.4997 24.0148 30.53 24.0162 30.5618C23.9801 30.7192 23.8516 30.7336 23.8126 30.7336ZM23.4848 25.4C23.6595 25.4722 23.8256 25.5459 23.9874 25.6224C23.9888 26.1193 23.9902 26.6291 23.9931 27.1591L23.9874 27.162V28.1325H23.9989C23.9989 28.3275 24.0004 28.5225 24.0018 28.7218C23.866 28.6626 23.6104 28.5109 23.5454 28.3044C23.5295 27.2472 23.5093 26.2853 23.4848 25.4ZM21.8455 22.991C21.8065 22.6545 22.1777 22.2198 23.0616 21.5597C23.1035 22.2848 23.141 23.1065 23.1742 24.028C22.4045 23.6669 21.8874 23.3318 21.8455 22.991ZM24.2863 7.41615L24.2878 8.53256L23.6104 8.35347L23.3057 8.19749C23.3461 7.97363 23.18 7.68334 22.959 7.41182V6.63047L24.2863 7.41615ZM25.1688 26.5193C25.1644 26.6291 25.0272 26.8414 24.2603 27.0811C24.2574 26.6262 24.256 26.1814 24.2545 25.7524C24.7933 26.0225 25.1803 26.294 25.1688 26.5193ZM22.1329 11.7359C19.5896 9.43089 19.4827 8.38091 19.6445 7.95919C19.7932 7.57213 20.2395 7.46959 20.4793 7.46959C20.5443 7.46959 20.5905 7.47825 20.6179 7.48403C20.7002 7.50281 20.7031 7.51725 20.7291 7.62123C20.7696 7.78155 20.8288 8.02851 21.3169 8.18883C21.9177 8.38813 22.3683 8.49356 22.6919 8.50945L22.6962 12.2544C22.507 12.0796 22.3337 11.9179 22.1329 11.7359ZM21.2202 7.63712C21.2606 7.56202 21.3776 7.5418 21.4787 7.59379C21.5783 7.64579 21.6246 7.74688 21.587 7.83065C21.5581 7.8812 21.5076 7.9072 21.4469 7.9072C21.4065 7.9072 21.3675 7.89564 21.3285 7.87687C21.2707 7.84654 21.2274 7.79743 21.2115 7.744C21.1999 7.70644 21.2028 7.66889 21.2202 7.63712ZM21.6303 6.84134C21.6751 6.78645 21.8036 6.78934 21.886 6.86733C21.9336 6.90777 21.9611 6.96554 21.964 7.01898C21.9654 7.05942 21.9538 7.09552 21.9278 7.12441C21.9019 7.15185 21.8643 7.16774 21.8239 7.16774C21.769 7.16774 21.7127 7.14174 21.6679 7.09986C21.6217 7.05797 21.5928 6.99876 21.5913 6.94388C21.5899 6.90344 21.6058 6.86733 21.6303 6.84134ZM24.4885 13.9427C24.7196 11.1885 25.1399 10.426 25.8317 9.84828L25.8894 9.79917L25.6324 8.1065L25.498 8.12961C25.1298 8.19027 24.7875 8.54556 24.5578 8.85896L24.5549 7.26161L22.689 6.1582L22.6904 7.10997C22.4911 6.90922 22.3048 6.75179 22.2326 6.69835C22.0217 6.54238 21.8354 6.47161 21.6462 6.47161C21.535 6.47161 21.4368 6.49616 21.3501 6.51782C21.2028 6.55537 21.1017 6.58859 20.888 6.49616C19.9478 6.30552 19.2228 6.51493 18.8198 7.08253C18.4429 7.61546 18.3808 8.43724 18.6609 9.22869C18.8891 9.86994 19.3181 10.5242 19.6373 10.9589C19.8236 11.2145 21.4585 12.9375 21.8354 13.3246C22.1084 13.6005 22.4016 13.8749 22.6976 14.1449L22.6991 14.8772L22.2283 14.5565L21.7618 15.634L21.86 15.6961C22.2745 15.9531 22.6846 16.6233 22.9648 20.1198C21.9524 20.491 20.5934 21.7013 20.5572 22.9534C20.5414 23.5326 20.8158 24.3385 22.2413 24.8974C22.5474 25.0158 22.8825 25.1458 23.2132 25.2816C23.2306 25.9185 23.2465 26.6016 23.2595 27.3267C23.0038 27.422 22.4146 27.7325 22.3106 28.2062C22.2283 28.5817 22.4579 28.9486 22.9952 29.2923C23.089 29.3515 23.1901 29.3876 23.2898 29.4165C23.2927 29.6028 23.2941 29.7949 23.2956 29.9826C22.9836 30.1299 22.8695 30.2036 22.6774 30.4202C22.5807 30.53 22.4911 30.6484 22.5445 30.7596C22.5561 30.79 22.598 30.8579 22.7092 30.8579C22.7843 30.8579 22.8912 30.8232 23.0905 30.7423C23.2046 30.6975 23.2768 30.6773 23.3273 30.6658C23.414 30.8694 23.6017 31.0052 23.8126 31.0052C24.0422 31.0052 24.2285 30.8463 24.282 30.5863C24.282 30.5112 24.2805 30.4376 24.2805 30.361C24.5347 30.2339 24.6965 30.0086 24.708 29.727C24.721 29.4049 24.5506 29.0915 24.269 28.8836C24.2675 28.6091 24.2661 28.3477 24.2647 28.082C25.2121 27.8899 26.2202 27.2775 26.3112 26.4543C26.366 25.9633 26.1017 25.2411 24.5318 24.6071C24.4365 24.5667 24.3455 24.5306 24.2517 24.4945C24.2502 23.2047 24.2545 22.0392 24.2618 20.9792C25.9458 20.1357 27.0925 19.3515 27.2398 18.2972C27.3886 17.201 26.4787 15.9055 24.4885 13.9427Z" fill="#FFFFFE"/>
<path fill-rule="evenodd" clip-rule="evenodd" d="M12.1862 28.3247H13.19V25.7582H12.1862V28.3247ZM10.5947 30.1098H13.1611V29.1031H10.5947V30.1098ZM8.8399 30.1343H9.84366V27.5708H8.8399V30.1343ZM8.81102 26.7894H11.3789V25.7857H8.81102V26.7894ZM8.7287 24.8946H9.50715V24.1132H8.7287V24.8946ZM6.94215 26.7894H7.94591V24.223H6.94215V26.7894ZM6.97104 23.2207H9.53748V22.214H6.97104V23.2207ZM10.6236 28.3521H11.4049V27.5708H10.6236V28.3521ZM10.3737 24.7834H11.3789V22.214H10.3737V24.7834ZM12.1891 24.8946L12.1862 21.437H6.05249V27.5708H7.94591V31.0298H14.0811V24.8946H12.1891Z" fill="#FFFFFE"/>
<path fill-rule="evenodd" clip-rule="evenodd" d="M72.1096 14.3993C70.2971 14.9437 69.6818 15.247 69.1215 15.5316C68.3401 15.9258 67.9343 16.7274 67.9343 17.6676C67.9343 18.4042 68.1971 19.6376 69.9649 19.6376C70.5484 19.6376 71.3817 19.5307 72.1096 19.0093V14.3993ZM68.8485 21.5555C65.1613 21.5555 64.8768 18.7551 64.8768 17.8958C64.8768 16.8863 65.1483 15.1026 67.4981 14.2375C69.9216 13.3464 70.4415 13.2439 72.1096 12.7181V12.2878C72.1096 11.479 72.1096 11.2811 71.9493 10.7814C71.6272 9.81952 70.7044 9.21583 69.4536 9.21583C67.6137 9.21583 66.8583 10.6196 66.8525 10.6341L66.7067 10.9085L66.0235 10.5027L66.0914 10.2932C66.4236 9.2346 67.7595 7.43506 70.6798 7.43506C72.5761 7.43506 73.8124 7.97377 74.5779 9.13639C75.1469 10.0593 75.1931 11.3331 75.1931 12.6662C75.1931 13.8374 75.1642 15.1416 75.1397 16.1945C75.1223 16.9166 75.1079 17.542 75.1079 17.9232C75.1079 18.8851 75.261 19.6289 76.0611 19.6289C76.2604 19.6289 76.3962 19.587 76.5059 19.4946L76.7255 19.3083L77.1746 19.8181L77.0244 20.0102C76.2879 20.8984 75.5874 21.5252 74.3381 21.5252C73.2564 21.5252 72.5068 21.0125 72.2526 20.1488C71.6518 20.7756 70.5599 21.5555 68.8485 21.5555Z" fill="#771F21"/>
<path fill-rule="evenodd" clip-rule="evenodd" d="M46.3214 21.5191C44.558 21.5191 43.2134 21.3256 41.8341 20.8764L41.6348 20.8114V19.8221C41.6348 18.5064 41.6073 17.9893 41.5785 17.5705L41.5395 16.8859L42.3425 16.8874L42.3584 17.1733C42.393 17.7871 42.5981 18.3908 42.9736 18.814C43.5513 19.4682 44.8844 19.864 46.1221 19.864C48.716 19.864 49.9219 18.8819 49.9219 16.7747C49.9219 14.9694 48.8055 14.2184 47.2659 13.1785L47.019 13.0095L45.3913 11.9263C43.1281 10.4258 41.9785 9.22558 41.9785 6.82812C41.9785 5.65538 42.4205 1.82666 48.1224 1.82666C50.4635 1.82666 52.2674 2.13429 52.3425 2.14584L52.588 2.18917L52.5793 2.43036C52.5793 2.43758 52.5606 3.18137 52.5606 3.98727C52.5606 4.62274 52.549 5.17589 52.5721 5.74637L52.5938 6.17242H51.9034L51.8861 5.90668C51.8356 5.18167 51.6233 4.66029 51.2261 4.26167C50.6773 3.71141 49.4641 3.45434 48.1787 3.45434C45.1588 3.45434 44.8064 5.00835 44.8064 6.17242C44.8064 7.77555 45.6281 8.31859 47.4234 9.50577L49.4843 10.8706C51.2405 12.0419 52.8942 13.1467 52.8942 16.0584C52.8942 20.9862 48.2986 21.5191 46.3214 21.5191Z" fill="#771F21"/>
<path fill-rule="evenodd" clip-rule="evenodd" d="M59.8306 21.606C57.7263 21.606 56.5608 20.8535 56.0438 19.1753C55.8286 18.5066 55.8286 17.1909 55.8286 16.4023C55.8286 14.2287 55.8488 12.4841 55.8719 10.465L55.8835 9.51755H54.0868V8.98173L54.2616 8.91096C55.0992 8.56434 55.417 8.32893 55.7867 8.04441C57.0938 7.03054 58.0022 5.31621 58.0166 5.29166L58.3228 4.77173H58.915V7.83066H63.5481V9.51755H58.915V16.6594C58.915 18.7911 59.3121 20.0101 61.3341 20.0101C62.2714 20.0101 62.9935 19.6461 62.9993 19.6403L63.2795 19.4974L63.5178 20.0505L63.4008 20.1819C63.3517 20.2354 62.3032 21.606 59.8306 21.606Z" fill="#771F21"/>
<path fill-rule="evenodd" clip-rule="evenodd" d="M78.3348 21.4357V20.7887L78.5977 20.7699C78.8259 20.7497 79.4021 20.6587 79.8036 20.2052C80.2239 19.7372 80.2499 18.5761 80.2499 16.258V12.3715C80.2499 10.6991 80.2239 9.98273 79.9813 9.61878C79.704 9.21872 79.0887 9.1754 78.7609 9.15229C78.719 9.15084 78.6829 9.14507 78.6482 9.14362L78.3897 9.11618V8.33773L78.6959 8.36228C78.7493 8.3695 78.8172 8.3695 78.9053 8.3695C79.3256 8.3695 80.3163 8.31318 81.3634 8.10953C82.1635 7.98244 82.6286 7.70659 82.7976 7.62715L82.9535 7.55494L83.2207 7.71525V8.79556C83.9082 8.28573 85.2875 7.48706 87.1635 7.48706C89.6144 7.48706 91.2161 8.6338 91.674 10.7135C91.8039 11.2291 91.8516 12.4799 91.8516 13.1471V17.1159C91.8516 19.3617 91.9383 19.9929 92.3585 20.3857C92.5708 20.5807 93.0186 20.741 93.4114 20.767L93.68 20.7858V21.4212L93.0056 21.3851C92.0292 21.336 91.1887 21.2913 90.3062 21.2913C89.301 21.2913 88.433 21.2913 87.2199 21.4039L86.9036 21.4357V20.806L87.1491 20.7728C87.6763 20.6904 88.0431 20.5402 88.2771 20.3077C88.7176 19.8672 88.7407 18.8216 88.7739 17.9175C88.7797 17.7673 88.7854 17.6098 88.7941 17.4466C88.8187 16.9383 88.8187 15.8695 88.8187 15.0882C88.8187 14.07 88.8187 13.0171 88.7089 11.9787C88.5053 10.2196 87.5896 9.4007 85.8204 9.4007C84.6072 9.4007 83.849 9.67944 83.2742 9.97407V17.1159C83.2742 19.3617 83.3666 19.9929 83.7869 20.3857C84.0006 20.5807 84.444 20.741 84.8383 20.767L85.1055 20.7858V21.4212L84.3819 21.3837C83.4403 21.3346 82.6228 21.2913 81.7649 21.2913C80.7828 21.2913 79.8599 21.2913 78.6424 21.4039L78.3348 21.4357Z" fill="#771F21"/>
<path fill-rule="evenodd" clip-rule="evenodd" d="M95.2986 21.4356V20.7756L95.5629 20.7554C95.794 20.7381 96.3703 20.6485 96.7703 20.195C97.1935 19.7256 97.2137 18.576 97.2137 16.258V9.51764H95.4416V8.75363L95.6193 8.67853C96.3891 8.36224 96.8628 8.1095 97.2137 7.83653C97.2166 6.63202 97.2527 5.07656 97.4159 4.23022C97.9546 1.42404 99.7888 0 102.875 0C104.198 0 105.462 0.440498 106.196 1.03553L106.3 1.12074L106.341 1.40959L104.991 3.28568L104.666 3.28857L104.592 3.11959C104.077 1.96563 103.326 1.51502 102.302 1.51502C101.876 1.51502 101.292 1.64067 100.931 2.00318C100.342 2.59099 100.242 3.46621 100.242 5.20076V7.83075H103.272V9.51764H100.242V17.0595C100.242 18.8548 100.302 19.73 100.536 20.0809C100.917 20.6543 102.074 20.6976 102.414 20.6976H102.702V21.4212L102.4 21.4039C100.902 21.3259 99.7888 21.2912 98.9844 21.2912C97.9749 21.2912 96.8267 21.2912 95.6106 21.4039L95.2986 21.4356Z" fill="#771F21"/>
<path fill-rule="evenodd" clip-rule="evenodd" d="M111.112 9.0296C110.31 9.0296 109.662 9.23613 109.188 9.6463C108.093 10.562 107.54 12.2301 107.54 14.6015C107.54 15.5186 107.709 20.0926 111.058 20.0926C111.856 20.0926 112.508 19.8817 112.988 19.4745C114.075 18.5588 114.629 16.8907 114.629 14.5178C114.629 13.6021 114.46 9.0296 111.112 9.0296ZM110.94 21.6639C106.791 21.6639 104.311 19.0773 104.311 14.7474C104.311 11.3852 106.122 7.45825 111.227 7.45825C115.38 7.45825 117.859 10.0449 117.859 14.3733C117.859 17.737 116.048 21.6639 110.94 21.6639Z" fill="#771F21"/>
<path fill-rule="evenodd" clip-rule="evenodd" d="M119.171 21.4354V20.7465L119.435 20.7234C119.668 20.7104 120.248 20.6194 120.645 20.163C121.068 19.6937 121.086 18.5758 121.086 16.2578V12.3713C121.086 10.6988 121.063 9.98249 120.823 9.61853C120.544 9.21848 119.932 9.17515 119.603 9.15204C119.562 9.1506 119.523 9.14482 119.494 9.14337L119.23 9.11593V8.29271L119.523 8.29849C119.574 8.30282 119.662 8.30426 119.746 8.30426C120.169 8.30426 121.159 8.25227 122.202 8.04718C122.864 7.93742 123.433 7.76844 123.661 7.65868L123.82 7.58936L124.06 7.71501V8.89641C124.711 8.28115 125.744 7.62979 127.204 7.62979C128.155 7.62979 128.922 7.88398 129.48 8.38658L129.574 8.47324V8.90218L128.428 11.0007H127.878L127.794 10.8678C127.475 10.3681 126.837 9.77307 125.602 9.77307C125.037 9.77307 124.551 9.91461 124.119 10.2049V17.0593C124.119 18.8545 124.178 19.7023 124.412 20.0533C124.795 20.6223 125.946 20.6671 126.288 20.6671H126.573V21.421L126.274 21.4037C124.779 21.3257 123.661 21.291 122.858 21.291C121.847 21.291 120.702 21.291 119.487 21.4037L119.171 21.4354Z" fill="#771F21"/>
<path fill-rule="evenodd" clip-rule="evenodd" d="M137.413 9.11627C134.765 9.11627 133.469 10.9303 133.469 14.6608C133.469 16.1729 133.898 19.6882 137.847 19.6882H137.974C138.453 19.6882 139.349 19.6189 140.13 19.1351V10.0261C139.906 9.80662 139.083 9.11627 137.413 9.11627ZM140.552 21.6235L140.189 21.5022V20.3569C139.515 20.8566 138.177 21.6322 136.389 21.6322C132.655 21.6322 130.24 19.0426 130.24 15.0319C130.24 13.7018 130.503 12.4366 130.984 11.3708C132.122 8.90252 134.49 7.48715 137.473 7.48715C138.566 7.48715 139.545 7.62291 140.13 7.74856V4.85716C140.13 3.1616 140.107 2.25894 139.864 1.89355C139.588 1.49782 138.993 1.45305 138.671 1.4285C138.629 1.42705 138.592 1.42417 138.562 1.41983L138.304 1.39528L138.364 0.78436H138.651C138.716 0.78436 140.287 0.654377 141.566 0.403077C142.101 0.314977 142.631 0.195104 142.907 0.094006L143.043 0.043457L143.277 0.18355L143.265 0.314977C143.176 1.43716 143.161 3.83318 143.161 5.62839V16.7174C143.161 18.3739 143.185 19.3994 143.424 19.7301C143.706 20.1345 144.298 20.2024 144.62 20.2284C144.662 20.2284 144.703 20.2313 144.733 20.2356L144.99 20.2457V20.9765H144.705C144.401 20.9765 143.212 21.0603 142.064 21.2581C141.404 21.365 140.917 21.4603 140.677 21.5701L140.552 21.6235Z" fill="#771F21"/>
<path fill-rule="evenodd" clip-rule="evenodd" d="M42.9765 27.3589H45.1934L47.2385 32.9366L47.9837 35.0842H48.053L48.7809 32.9366L50.7884 27.3589H53.0054V38.6876H51.1192V33.5085C51.1192 32.4513 51.2737 30.945 51.3777 29.9051H51.3098L50.3913 32.486L48.4329 37.6304H47.4984L45.54 32.486L44.6388 29.9051H44.5709C44.6749 30.945 44.8295 32.4513 44.8295 33.5085V38.6876H42.9765V27.3589Z" fill="#2D2E2C"/>
<path fill-rule="evenodd" clip-rule="evenodd" d="M60.2194 27.3589H67.0449V29.0559H62.2298V31.9502H66.2997V33.6472H62.2298V36.9906H67.2183V38.6876H60.2194V27.3589Z" fill="#2D2E2C"/>
<path fill-rule="evenodd" clip-rule="evenodd" d="M76.7689 37.0585C79.0552 37.0585 80.3564 35.7601 80.3564 32.9713C80.3564 30.1997 79.0552 28.988 76.7689 28.988H75.8865V37.0585H76.7689ZM73.8761 27.3589H76.909C80.3738 27.3589 82.4174 29.2306 82.4174 32.9713C82.4174 36.7292 80.3738 38.6876 77.0115 38.6876H73.8761V27.3589Z" fill="#2D2E2C"/>
<path fill-rule="evenodd" clip-rule="evenodd" d="M89.0406 38.6876H91.051V27.3589H89.0406V38.6876Z" fill="#2D2E2C"/>
<path fill-rule="evenodd" clip-rule="evenodd" d="M102.906 27.1519C104.273 27.1519 105.416 27.8249 106.128 28.5889L105.001 29.8367C104.429 29.2634 103.79 28.8994 102.923 28.8994C101.053 28.8994 99.7356 30.4592 99.7356 33.0054C99.7356 35.5849 100.949 37.1447 102.854 37.1447C103.857 37.1447 104.585 36.7287 105.227 36.0196L106.353 37.2501C105.435 38.3058 104.239 38.8937 102.819 38.8937C99.9262 38.8937 97.6746 36.8154 97.6746 33.0574C97.6746 29.3515 99.9941 27.1519 102.906 27.1519Z" fill="#2D2E2C"/>
<path fill-rule="evenodd" clip-rule="evenodd" d="M112.576 38.6876H114.587V27.3589H112.576V38.6876Z" fill="#2D2E2C"/>
<path fill-rule="evenodd" clip-rule="evenodd" d="M121.798 27.3589H123.861L127.393 33.7324L128.554 36.1414H128.624C128.537 34.9802 128.364 33.5432 128.364 32.278V27.3589H130.286V38.6876H128.225L124.691 32.3141L123.53 29.9051H123.462C123.549 31.101 123.722 32.4687 123.722 33.7324V38.6876H121.798V27.3589Z" fill="#2D2E2C"/>
<path fill-rule="evenodd" clip-rule="evenodd" d="M137.498 27.3589H144.324V29.0559H139.509V31.9502H143.579V33.6472H139.509V36.9906H144.497V38.6876H137.498V27.3589Z" fill="#2D2E2C"/>
<path fill-rule="evenodd" clip-rule="evenodd" d="M21.3788 7.79639C21.4453 7.83105 21.5204 7.82672 21.5449 7.78195C21.568 7.73717 21.5348 7.66641 21.4669 7.63174C21.3976 7.59564 21.3225 7.60141 21.298 7.64907C21.2734 7.69385 21.3095 7.76028 21.3788 7.79639Z" fill="#942137"/>
<path fill-rule="evenodd" clip-rule="evenodd" d="M21.734 7.02928C21.7889 7.08272 21.8625 7.09427 21.8986 7.05528C21.9333 7.01917 21.916 6.94696 21.8596 6.89496C21.8019 6.84153 21.7282 6.82997 21.6964 6.87041C21.6603 6.90363 21.6762 6.97873 21.734 7.02928Z" fill="#942137"/>
<path fill-rule="evenodd" clip-rule="evenodd" d="M23.3241 8.17592L23.6289 8.33335L24.3062 8.51099L24.3048 7.39458L22.9775 6.61035V7.39025C23.1985 7.66033 23.3646 7.95207 23.3241 8.17592Z" fill="#771F21"/>
<path fill-rule="evenodd" clip-rule="evenodd" d="M25.1885 26.4978C25.1987 26.2725 24.8116 26.0039 24.2729 25.7295C24.2743 26.1613 24.2758 26.6047 24.2787 27.0582C25.0441 26.8199 25.1828 26.6076 25.1885 26.4978Z" fill="#771F21"/>
<path fill-rule="evenodd" clip-rule="evenodd" d="M21.8641 22.9681C21.9074 23.3104 22.423 23.6469 23.1928 24.0066C23.1596 23.0851 23.122 22.2633 23.0816 21.5383C22.1948 22.1984 21.8251 22.6345 21.8641 22.9681Z" fill="#771F21"/>
<path fill-rule="evenodd" clip-rule="evenodd" d="M24.0204 28.7002C24.019 28.4994 24.0175 28.3059 24.0175 28.1109L24.0045 28.1124V27.1404L24.0118 27.1389C24.0089 26.6103 24.0074 26.0962 24.0045 25.5994C23.8442 25.5243 23.6781 25.4506 23.5048 25.377C23.5279 26.2623 23.5481 27.2256 23.5655 28.2828C23.629 28.4879 23.8847 28.6439 24.0204 28.7002Z" fill="#771F21"/>
<path fill-rule="evenodd" clip-rule="evenodd" d="M21.337 8.16724C20.8474 8.00693 20.7882 7.7614 20.7477 7.5982C20.7217 7.49566 20.7188 7.48122 20.6365 7.46244C20.6105 7.45666 20.5629 7.448 20.4979 7.448C20.2581 7.448 19.8119 7.55198 19.6631 7.9376C19.5013 8.35932 19.6082 9.4093 22.1516 11.7143C22.3523 11.8963 22.5256 12.0581 22.7148 12.2314L22.7105 8.48786C22.387 8.47198 21.9378 8.36654 21.337 8.16724Z" fill="#771F21"/>
<path fill-rule="evenodd" clip-rule="evenodd" d="M21.464 7.88546C21.5261 7.88546 21.5767 7.85946 21.6056 7.80891C21.6431 7.72659 21.5969 7.62405 21.4972 7.57205C21.3961 7.52006 21.2806 7.53884 21.2387 7.61538C21.2214 7.64715 21.2185 7.68471 21.23 7.7237C21.2474 7.77569 21.2893 7.8248 21.347 7.85513C21.3846 7.87535 21.425 7.88546 21.464 7.88546Z" fill="#771F21"/>
<path fill-rule="evenodd" clip-rule="evenodd" d="M21.8411 7.14606C21.8829 7.14606 21.9205 7.13017 21.9465 7.10273C21.9739 7.07529 21.984 7.03774 21.9826 6.9973C21.9797 6.94386 21.9523 6.88609 21.906 6.84565C21.8223 6.76911 21.6952 6.76477 21.649 6.8211C21.623 6.84565 21.6085 6.8832 21.6114 6.9222C21.6129 6.97708 21.6403 7.03629 21.6865 7.07818C21.7313 7.12006 21.7876 7.14606 21.8411 7.14606Z" fill="#771F21"/>
<path fill-rule="evenodd" clip-rule="evenodd" d="M24.0174 30.452V29.9609C24.0232 29.5883 23.8614 29.5291 23.5798 29.4641C23.5841 29.8035 23.587 30.1501 23.5899 30.5054L23.5913 30.5415C23.6448 30.6657 23.7502 30.7105 23.8325 30.7105C23.8701 30.7105 23.9986 30.6989 24.0347 30.5386C24.0333 30.5083 24.0333 30.4794 24.0333 30.4476L24.0174 30.452Z" fill="#771F21"/>
<path fill-rule="evenodd" clip-rule="evenodd" d="M24.2949 19.5437C25.2452 19.1061 25.7694 18.6295 25.8575 18.0893C25.9789 17.3513 25.3073 16.5281 24.3988 15.6558C24.3497 16.726 24.3151 18.0012 24.2949 19.5437Z" fill="#771F21"/>
<path fill-rule="evenodd" clip-rule="evenodd" d="M27.2586 18.2757C27.1113 19.33 25.9646 20.1142 24.2806 20.9576C24.2719 22.0192 24.269 23.1832 24.2704 24.4715C24.3643 24.5091 24.4553 24.5481 24.5521 24.5856C26.1205 25.2225 26.3848 25.9447 26.33 26.4343C26.239 27.2575 25.2309 27.8698 24.2834 28.059C24.2863 28.3248 24.2878 28.5876 24.2892 28.8606C24.5694 29.0715 24.7398 29.382 24.7268 29.7041C24.7153 29.9857 24.5535 30.2139 24.2993 30.3381C24.2993 30.4161 24.2993 30.4883 24.3008 30.5677C24.2473 30.8248 24.0596 30.9822 23.8328 30.9822C23.6205 30.9822 23.4328 30.8493 23.3461 30.6443C23.2956 30.6544 23.2234 30.6746 23.1093 30.7222C22.9085 30.8046 22.8031 30.8349 22.728 30.8349C22.6168 30.8349 22.5734 30.767 22.5633 30.7381C22.5113 30.6269 22.5994 30.5114 22.6962 30.3987C22.8883 30.1835 23.0024 30.1099 23.3143 29.9626C23.3129 29.7748 23.3115 29.5798 23.3086 29.3964C23.2089 29.3675 23.1093 29.33 23.0139 29.2693C22.4767 28.9256 22.247 28.5616 22.3308 28.1832C22.4334 27.7095 23.0226 27.4005 23.2782 27.3066C23.2652 26.5787 23.2494 25.8984 23.232 25.2615C22.9013 25.1258 22.5662 24.9943 22.26 24.8745C20.8346 24.3199 20.5587 23.5125 20.576 22.9319C20.6136 21.6812 21.9726 20.4695 22.9836 20.0983C22.7034 16.6018 22.2933 15.9331 21.8802 15.676L21.7805 15.6139L22.247 14.5365L22.7179 14.8557V14.1234C22.4204 13.8519 22.1257 13.5789 21.8542 13.3031C21.4773 12.916 19.8409 11.193 19.6575 10.9374C19.3369 10.5027 18.9079 9.84987 18.6783 9.20717C18.3995 8.41572 18.4616 7.59394 18.8386 7.05957C19.2401 6.49342 19.9666 6.284 20.9068 6.47464C21.1205 6.56707 21.2216 6.5353 21.3689 6.49631C21.457 6.47464 21.5538 6.45009 21.665 6.45009C21.8542 6.45009 22.0405 6.52086 22.2514 6.67684C22.3236 6.73028 22.5113 6.8877 22.7092 7.08845L22.7078 6.13669L24.5737 7.2401L24.5766 8.83744C24.8048 8.52404 25.1485 8.16875 25.5168 8.1081L25.6512 8.08499L25.9097 9.7791L25.8505 9.82676C25.1587 10.4045 24.7398 11.167 24.5073 13.9227C26.4975 15.884 27.4074 17.1809 27.2586 18.2757ZM30.9501 1.95557H16.4585V39.8673C17.5315 39.2722 18.531 38.6454 19.4726 37.9941C36.912 25.9591 32.3279 5.17481 30.9501 1.95557Z" fill="#771F21"/>
<path fill-rule="evenodd" clip-rule="evenodd" d="M25.6205 9.67084L25.4299 8.4129C25.0717 8.57177 24.7005 9.08737 24.5619 9.36466L24.3062 9.30545V8.66131L23.9899 8.7263L24.0145 9.13214L23.8903 9.16969L23.4902 8.53277L23.184 8.38257C23.1306 8.42445 23.0685 8.46056 22.9804 8.47645L22.9847 12.4799C23.444 12.9045 23.8701 13.306 24.2557 13.6801C24.4925 11.0544 24.9186 10.2745 25.6205 9.67084Z" fill="#771F21"/>
<path fill-rule="evenodd" clip-rule="evenodd" d="M22.9878 14.3677L22.9893 15.3657L22.3653 14.9425L22.1198 15.5086C22.6296 15.8524 23.2073 16.6583 23.4659 24.1323C23.6363 24.2059 23.8139 24.2839 24.0017 24.3619C23.9959 20.3281 24.0363 17.4714 24.1389 15.4104C23.8789 15.1707 23.6103 14.9266 23.333 14.6796C23.2189 14.5771 23.1033 14.4717 22.9878 14.3677Z" fill="#771F21"/>
<path fill-rule="evenodd" clip-rule="evenodd" d="M2.85777 12.5174C2.71334 12.5145 2.58769 12.5174 2.43894 12.3297C2.28007 12.126 2.12553 11.6812 2.39416 11.5411C2.56025 11.3981 2.94443 11.6075 3.07152 11.8386C3.1885 12.0509 3.14662 12.1766 3.10329 12.3268C3.23905 12.5391 3.39214 12.7499 3.52935 12.9391C3.43403 12.3282 3.60878 11.8227 3.76765 11.4631C4.31213 12.2228 4.21104 12.8785 3.90774 13.3464C4.13449 13.6266 4.32369 13.8375 4.55044 14.0656C4.48689 13.6381 4.53744 12.9911 4.69486 12.6286C5.20468 13.332 5.27401 14.0526 5.04004 14.5264C5.25523 14.7069 5.45599 14.8788 5.66685 15.0131C5.55131 14.6101 5.49931 13.9414 5.60474 13.5573C6.181 14.1436 6.35864 14.8051 6.22577 15.3063C6.46985 15.4175 6.70815 15.5142 6.95368 15.572C6.83814 15.3337 6.72404 14.925 6.74426 14.665C7.17754 14.9423 7.28586 15.26 7.26853 15.5966C7.33641 15.6052 7.51983 15.689 7.58626 15.689L7.57037 14.7199C7.14432 14.6101 6.50307 14.3646 6.29365 13.5428C6.69227 13.6367 7.20065 13.732 7.57037 14.0613V13.5472C6.7096 13.4778 5.8416 12.8655 5.4141 11.6465C6.16078 11.7765 6.88147 12.1318 7.57037 12.5824V12.1318C6.81792 12.0769 6.10734 11.3793 5.7925 10.3886C6.41497 10.5056 6.99267 10.7857 7.57037 11.1974V10.6312C6.86702 10.5547 6.14201 9.95385 5.7925 8.85477C6.41497 8.97176 6.99267 9.24039 7.57037 9.65056V9.01509C6.84247 8.96454 6.155 8.5587 5.7925 7.42785C6.41497 7.54483 6.99267 7.87124 7.57037 8.28285V7.57516C6.99845 7.51017 6.45685 7.15777 6.17089 6.04425C6.66916 6.15979 7.10966 6.37354 7.57037 6.78516V6.05147C7.12988 5.97204 6.72115 5.79729 6.50018 4.93507C6.80059 5.00439 7.16598 5.02028 7.57326 5.38567L7.5646 4.94517C7.23242 4.44691 7.30752 4.22738 7.34652 3.83454C7.38262 3.47637 7.51694 3.21207 7.90255 3.19329C8.28673 3.21207 8.4196 3.47637 8.46004 3.83454C8.50047 4.22738 8.57269 4.44691 8.23907 4.94517L8.24629 5.39723C8.54814 5.15315 8.98719 4.95817 9.33814 4.8874C9.14461 5.75685 8.71711 5.97782 8.25062 6.05581L8.23473 6.78804C8.61457 6.48331 9.1865 6.07314 9.62266 5.98359C9.37425 7.08989 8.84132 7.49284 8.25062 7.57516V8.29585C8.72289 7.99111 9.46524 7.45674 10.0126 7.36864C9.70065 8.48793 9.00596 8.93276 8.25351 9.00209L8.2564 9.665C8.72722 9.36026 9.46524 8.88222 10.0126 8.797C9.71221 9.87875 8.98141 10.5359 8.25784 10.6355V11.1974C8.73156 10.8941 9.46524 10.416 10.0126 10.3279C9.72665 11.4631 9.00452 12.0755 8.25062 12.1405V12.5997C8.81821 12.2632 9.74831 11.6797 10.4011 11.583C10.0285 12.8005 9.1475 13.4619 8.25062 13.5457V14.0714C8.55536 13.8273 9.19372 13.5645 9.54467 13.4952C9.35836 14.3242 8.68967 14.6101 8.24629 14.7199L8.24484 15.702C8.34883 15.6991 8.45137 15.6803 8.55825 15.6688C8.52792 15.3279 8.72722 14.977 9.17061 14.6953C9.18938 14.9568 9.04063 15.338 8.95542 15.5951C9.19372 15.5402 9.43058 15.4738 9.66743 15.3741C9.54034 14.8773 9.70643 14.1942 10.2769 13.6165C10.3838 14.0021 10.2827 14.6289 10.2321 15.0449C10.4834 14.8918 10.7376 14.7257 10.9831 14.5119C10.7073 14.0397 10.7578 13.306 11.2908 12.5708C11.4482 12.9319 11.4554 13.6295 11.4598 14.0498C11.6764 13.8201 11.9104 13.5602 12.1169 13.28C11.7414 12.8221 11.7269 12.3802 12.1761 11.4877C12.3335 11.8487 12.4751 12.3903 12.4808 12.812C12.6758 12.5607 12.813 12.3528 12.9791 12.0509C12.8809 11.8213 12.9257 11.6465 13.0455 11.4963C13.2116 11.2883 13.46 11.1107 13.6825 11.2465C13.9915 11.3866 13.8356 11.7274 13.7272 11.9773C13.6507 12.1535 13.5193 12.2733 13.2867 12.2661C13.1279 12.5506 12.904 12.8611 12.709 13.1081C13.1582 13.2511 13.4788 13.3565 13.7821 13.667C13.1163 13.9414 12.7177 13.8764 12.3884 13.6006C12.1732 13.8851 11.8598 14.1971 11.6345 14.4325C12.0721 14.5668 12.3595 14.6896 12.7163 15.0521C11.9912 15.3525 11.4554 15.2586 11.1334 14.9163C10.8806 15.133 10.638 15.3568 10.378 15.5099C10.807 15.728 11.1189 15.9605 11.3774 16.3172C10.5528 16.5064 10.0083 16.271 9.76709 15.8089C9.52156 15.9071 9.29337 15.9894 9.0464 16.0385C9.28182 16.2393 9.44213 16.3938 9.56056 16.6595C8.99441 16.6451 8.67234 16.5122 8.58857 16.1642C8.47448 16.1757 8.36038 16.2522 8.24629 16.2508V17.3571L7.55016 17.0466V16.2364C7.47939 16.2291 7.31474 16.1714 7.24686 16.1613C7.14721 16.4906 6.8988 16.6176 6.35576 16.6292C6.47274 16.3606 6.53918 16.1699 6.81358 16.0284C6.56228 15.9634 6.32687 15.8421 6.0799 15.728C5.86471 16.2436 5.37511 16.4573 4.50566 16.258C4.75985 15.9013 5.08337 15.5792 5.51809 15.4305C5.29567 15.2904 5.09059 15.1532 4.86962 14.9409C4.55333 15.2962 4.01173 15.4175 3.27083 15.1098C3.57268 14.8008 3.87453 14.5538 4.33524 14.4672C4.10416 14.2375 3.89041 13.9573 3.668 13.6771C3.33871 13.9689 2.83755 14.0628 2.15875 13.7768C2.46349 13.4677 2.81155 13.1399 3.24772 13.1457C3.1134 12.9536 2.99497 12.7369 2.85777 12.5174ZM0.477637 18.1948H16.0727V1.95557H1.58105C0.84159 3.68001 -0.813527 10.4391 0.477637 18.1948Z" fill="#771F21"/>
<path fill-rule="evenodd" clip-rule="evenodd" d="M8.85864 30.1155H9.8624V27.5491H8.85864V30.1155Z" fill="#771F21"/>
<path fill-rule="evenodd" clip-rule="evenodd" d="M10.6133 30.0868H13.1797V29.083H10.6133V30.0868Z" fill="#771F21"/>
<path fill-rule="evenodd" clip-rule="evenodd" d="M12.205 28.303H13.2102V25.738H12.205V28.303Z" fill="#771F21"/>
<path fill-rule="evenodd" clip-rule="evenodd" d="M8.74728 24.8714H9.52574V24.0901H8.74728V24.8714Z" fill="#771F21"/>
<path fill-rule="evenodd" clip-rule="evenodd" d="M8.8298 26.7696H11.3962V25.7644H8.8298V26.7696Z" fill="#771F21"/>
<path fill-rule="evenodd" clip-rule="evenodd" d="M10.6423 28.3333H11.4236V27.5491H10.6423V28.3333Z" fill="#771F21"/>
<path fill-rule="evenodd" clip-rule="evenodd" d="M12.2049 21.414L12.2078 24.8715H14.0998V31.0096H7.96457V27.5492H6.07115V21.414H12.2049ZM13.0585 37.994C14.0001 38.6454 14.9981 39.2722 16.0726 39.8672V18.5818H0.546875C1.73116 25.2138 5.10783 32.5102 13.0585 37.994Z" fill="#771F21"/>
<path fill-rule="evenodd" clip-rule="evenodd" d="M6.96091 26.7681H7.96466V24.2017H6.96091V26.7681Z" fill="#771F21"/>
<path fill-rule="evenodd" clip-rule="evenodd" d="M10.3911 24.7617H11.3963V22.1938H10.3911V24.7617Z" fill="#771F21"/>
<path fill-rule="evenodd" clip-rule="evenodd" d="M6.98975 23.2005H9.55619V22.1938H6.98975V23.2005Z" fill="#771F21"/>
</svg>
