<svg width="29" height="39" viewBox="0 0 29 39" fill="none" xmlns="http://www.w3.org/2000/svg">
<mask id="mask0" mask-type="alpha" maskUnits="userSpaceOnUse" x="0" y="0" width="29" height="39">
<path fill-rule="evenodd" clip-rule="evenodd" d="M14.3519 0.908203C22.2292 0.908203 28.7037 7.27482 28.7037 15.2601C28.4879 23.1374 19.7473 33.8204 14.3519 39C8.95643 34.252 0.215818 22.8137 0 15.2601C0 7.27482 6.36662 0.908203 14.3519 0.908203Z" fill="white"/>
</mask>
<g mask="url(#mask0)">
<mask id="mask1" mask-type="alpha" maskUnits="userSpaceOnUse" x="-14" y="-13" width="56" height="57">
<rect x="-13.9396" y="-12.7346" width="55.7582" height="55.7582" fill="#C4C4C4"/>
</mask>
<g mask="url(#mask1)">
<rect x="-24.8477" y="-14.8918" width="58.7845" height="58.7845" fill="#2F7CEE"/>
<circle cx="33.8744" cy="14.5004" r="29.3922" fill="#D2E0DD"/>
<path d="M33.8744 -14.8918C17.6415 -14.8918 4.48212 -1.73249 4.48212 14.5004C4.48212 22.3793 7.58224 29.5342 12.6292 34.8117L54.2421 -6.69065C48.9592 -11.7696 41.7814 -14.8918 33.8744 -14.8918Z" fill="#126131"/>
<circle cx="-10.7463" cy="-4.80196" r="19.365" fill="#B42813"/>
<circle cx="-9.05429" cy="30.1051" r="20.9318" fill="#113CBE"/>
<path d="M-18.5807 66.2032L71.7895 -24.167H53.4899L-36.8176 66.2032H-18.5807Z" fill="#FC613B"/>
<path d="M-42.5826 5.78931H82.068V14.5631H-42.5826V5.78931Z" fill="#EA8A85"/>
<path d="M61.8254 5.78931H83.0706L17.5177 71.4048H-3.7901L61.8254 5.78931Z" fill="#FF0000"/>
<path d="M-55.1797 64.0095L43.5256 -34.6958H53.8662L-44.8391 64.0095H-55.1797Z" fill="#E0B499"/>
<mask id="mask2" mask-type="alpha" maskUnits="userSpaceOnUse" x="4" y="-15" width="60" height="59">
<circle cx="33.8744" cy="14.5004" r="29.3922" fill="#D2E0DD"/>
</mask>
<g mask="url(#mask2)">
<path d="M-18.5808 66.2032L71.7894 -24.167H53.4898L-36.8177 66.2032H-18.5808Z" fill="#F8121F"/>
</g>
<path d="M-22.9669 93.9658L75.7384 -4.7395H79.8119L-18.8934 93.9658H-22.9669Z" fill="#0E3BC0"/>
<path d="M32.997 14.6259L41.7708 5.85205L23.4841 5.85205L14.7103 14.6259L32.997 14.6259Z" fill="#A0E6D7"/>
<path d="M4.73297 14.5631L13.5068 5.78931H2.97821L-5.79559 14.5631H4.73297Z" fill="#E1755A"/>
</g>
</g>
</svg>
