<?xml version="1.0" encoding="UTF-8" standalone="no"?>
<svg
   xmlns:dc="http://purl.org/dc/elements/1.1/"
   xmlns:cc="http://creativecommons.org/ns#"
   xmlns:rdf="http://www.w3.org/1999/02/22-rdf-syntax-ns#"
   xmlns:svg="http://www.w3.org/2000/svg"
   xmlns="http://www.w3.org/2000/svg"
   xmlns:xlink="http://www.w3.org/1999/xlink"
   xmlns:sodipodi="http://sodipodi.sourceforge.net/DTD/sodipodi-0.dtd"
   xmlns:inkscape="http://www.inkscape.org/namespaces/inkscape"
   inkscape:version="1.0 (4035a4fb49, 2020-05-01)"
   sodipodi:docname="Vera_Dark_Logo_Blue_CDCT.svg"
   id="svg45"
   version="1.1"
   fill="none"
   viewBox="0 0 641 229"
   height="229"
   width="641">
  <metadata
     id="metadata51">
    <rdf:RDF>
      <cc:Work
         rdf:about="">
        <dc:format>image/svg+xml</dc:format>
        <dc:type
           rdf:resource="http://purl.org/dc/dcmitype/StillImage" />
        <dc:title></dc:title>
      </cc:Work>
    </rdf:RDF>
  </metadata>
  <defs
     id="defs49" />
  <sodipodi:namedview
     inkscape:current-layer="svg45"
     inkscape:window-maximized="1"
     inkscape:window-y="-9"
     inkscape:window-x="-9"
     inkscape:cy="114.5"
     inkscape:cx="320.5"
     inkscape:zoom="1.8845554"
     showgrid="false"
     id="namedview47"
     inkscape:window-height="1373"
     inkscape:window-width="2560"
     inkscape:pageshadow="2"
     inkscape:pageopacity="0"
     guidetolerance="10"
     gridtolerance="10"
     objecttolerance="10"
     borderopacity="1"
     bordercolor="#666666"
     pagecolor="#ffffff" />
  <mask
     height="129"
     width="97"
     y="0"
     x="0"
     maskUnits="userSpaceOnUse"
     mask-type="alpha"
     id="mask0">
    <path
       id="path2"
       fill="white"
       d="M48.3902 0C74.9502 0 96.7804 21.4663 96.7804 48.3902C96.0527 74.9502 66.582 110.97 48.3902 128.434C30.1984 112.425 0.727672 73.8587 0 48.3902C0 21.4663 21.4663 0 48.3902 0Z"
       clip-rule="evenodd"
       fill-rule="evenodd" />
  </mask>
  <g
     clip-path="none"
     id="g898">
    <g
       id="g896"
       inkscape:label="Clip">
      <g
         mask="url(#mask0)"
         id="g41">
        <mask
           id="mask1"
           mask-type="alpha"
           maskUnits="userSpaceOnUse"
           x="-47"
           y="-46"
           width="188"
           height="188">
          <rect
             x="-47"
             y="-46"
             width="188"
             height="188"
             fill="#C4C4C4"
             id="rect5" />
        </mask>
        <g
           mask="url(#mask1)"
           id="g39">
          <rect
             x="-83.7773"
             y="-53.2739"
             width="198.204"
             height="198.204"
             fill="#2F7CEE"
             id="rect8" />
          <circle
             cx="114.215"
             cy="45.8279"
             r="99.1019"
             fill="#D2E0DD"
             id="circle10" />
          <path
             d="M114.215 -53.2739C59.4827 -53.2739 15.1133 -8.90451 15.1133 45.8279C15.1133 72.3934 25.566 96.5175 42.5829 114.312L182.889 -25.6219C165.077 -42.7465 140.875 -53.2739 114.215 -53.2739Z"
             fill="#126131"
             id="path12" />
          <circle
             cx="-36.2323"
             cy="-19.2542"
             r="65.2931"
             fill="#B42813"
             id="circle14" />
          <circle
             cx="-30.5278"
             cy="98.4425"
             r="70.5758"
             fill="#113CBE"
             id="circle16" />
          <path
             d="M-62.649 220.154L242.052 -84.5474H180.351L-124.139 220.154H-62.649Z"
             fill="#FC613B"
             id="path18" />
          <path
             d="M-143.576 16.4565H276.709V46.0392H-143.576V16.4565Z"
             fill="#EA8A85"
             id="path20" />
          <path
             d="M208.457 16.4565H280.089L59.0643 237.692H-12.7793L208.457 16.4565Z"
             fill="#FF0000"
             id="path22" />
          <path
             d="M-186.049 212.758L146.756 -120.046H181.621L-151.184 212.758H-186.049Z"
             fill="#E0B499"
             id="path24" />
          <mask
             id="mask2"
             mask-type="alpha"
             maskUnits="userSpaceOnUse"
             x="15"
             y="-54"
             width="199"
             height="199">
            <circle
               cx="114.215"
               cy="45.8279"
               r="99.1019"
               fill="#D2E0DD"
               id="circle26" />
          </mask>
          <g
             mask="url(#mask2)"
             id="g31">
            <path
               d="M-62.649 220.154L242.052 -84.5474H180.351L-124.139 220.154H-62.649Z"
               fill="#F8121F"
               id="path29" />
          </g>
          <path
             d="M-77.4375 313.762L255.367 -19.043H269.102L-63.7027 313.762H-77.4375Z"
             fill="#0E3BC0"
             id="path33" />
          <path
             d="M111.257 46.2506L140.84 16.668H79.5612L49.9785 46.2506H111.257Z"
             fill="#A0E6D7"
             id="path35" />
          <path
             d="M15.9582 46.0392L45.5408 16.4565H10.0416L-19.541 46.0392H15.9582Z"
             fill="#E1755A"
             id="path37" />
        </g>
      </g>
    </g>
  </g>
  <use
     height="100%"
     width="100%"
     x="0"
     y="0"
     xlink:href="#g896"
     id="use902" />
  <path
     id="path43"
     fill="#113CBE"
     d="M457.15 68.4849V127.644H428.219V3.48085H457.15V18.7902C462.985 5.95617 478.775 0 494.677 0C494.677 0 500.998 0.242154 503.429 0.726449V28.816C499.782 28.0895 495.649 27.5947 491.273 27.6052C473.927 27.6468 457.15 47.2309 457.15 68.4849ZM528.202 19.2207C540.115 6.87097 554.702 0.817188 571.963 0.817188C592.142 0.817188 606.972 9.29247 611.105 21.1579V3.48085H627.532C634.948 3.48085 640.279 7.50543 640.279 18.3117V24.9846V125.525H623.295C615.879 125.525 611.105 120.856 611.105 113.44V111.39V107.848C606.972 119.713 592.142 128.189 571.963 128.189C554.702 128.189 540.115 122.135 528.202 110.027C516.532 97.6776 510.697 82.6642 510.697 64.5029C510.697 46.3416 516.532 31.3282 528.202 19.2207ZM546.987 91.1395C554.038 98.1619 562.547 101.794 573.001 101.794C583.455 101.794 592.45 98.1619 599.501 91.1395C606.794 84.1171 610.441 75.1575 610.441 64.5029C610.441 53.8483 606.794 44.8887 599.501 37.8663C592.45 30.8439 583.455 27.2116 573.001 27.2116C562.547 27.2116 554.038 30.8439 546.987 37.8663C540.18 44.8887 536.776 53.8483 536.776 64.5029C536.776 75.1575 540.18 84.1171 546.987 91.1395ZM303.196 111.238C291.283 99.8565 285.205 84.601 285.205 65.4711V64.5025C285.205 45.1304 291.283 29.6327 303.196 17.7673C315.352 5.90195 330.668 0.090332 349.388 0.090332C367.136 0.090332 381.723 5.90195 392.906 17.7673C404.333 29.6327 409.925 44.1618 409.925 61.5967C409.925 65.2289 409.682 68.619 409.439 71.767H314.136C315.109 91.1391 329.453 103.731 351.09 103.731C363.732 103.731 374.673 99.1301 384.154 89.6862L401.659 106.637C387.801 121.166 370.783 128.43 350.118 128.43C330.911 128.43 315.109 122.619 303.196 111.238ZM325.806 32.5386C319.242 37.6237 315.595 43.9196 314.865 51.4263H380.264C380.264 44.1618 377.104 37.8659 371.026 32.7807C364.948 27.4534 357.897 24.7897 349.388 24.7897C340.393 24.7897 332.37 27.4534 325.806 32.5386ZM145 0.090332H167.692C173.073 0.090332 177.575 2.86481 180.421 9.52356C182.151 13.5694 191.245 35.3946 200.131 56.7186C204.895 68.1497 209.598 79.4367 213.075 87.7636L244.622 9.52356C247.389 2.30992 252.524 0.090332 257.399 0.090332H280.596L225.251 128.271H199.792L145 0.090332ZM298.383 162C294.936 162 291.991 163.134 289.581 165.436C287.205 167.737 286 170.605 286 174.041C286 177.477 287.205 180.345 289.581 182.647C291.991 184.915 294.936 186.049 298.383 186.049C302.031 186.049 305.378 184.481 307.654 181.813L304.843 179.378C303.203 181.312 301.027 182.28 298.383 182.28C296.041 182.28 294.066 181.512 292.493 179.945C290.92 178.377 290.15 176.409 290.15 174.041C290.15 171.673 290.92 169.705 292.493 168.137C294.066 166.57 296.041 165.769 298.383 165.769C300.96 165.769 303.102 166.703 304.776 168.604L307.621 166.169C305.177 163.401 302.098 162 298.383 162ZM323.351 186.115C326.798 186.115 329.743 184.948 332.12 182.647C334.496 180.345 335.701 177.477 335.701 174.074C335.701 170.672 334.496 167.804 332.086 165.502C329.71 163.167 326.798 162 323.351 162C319.904 162 316.992 163.167 314.616 165.502C312.239 167.804 311.035 170.672 311.035 174.074C311.035 177.477 312.239 180.345 314.616 182.647C316.992 184.948 319.904 186.115 323.351 186.115ZM315.151 174.074C315.151 171.74 315.921 169.772 317.494 168.171C319.067 166.57 321.042 165.769 323.351 165.769C325.66 165.769 327.601 166.57 329.174 168.171C330.748 169.772 331.551 171.74 331.551 174.074C331.551 176.409 330.748 178.377 329.174 179.978C327.601 181.546 325.66 182.346 323.351 182.346C321.042 182.346 319.067 181.546 317.494 179.978C315.921 178.41 315.151 176.443 315.151 174.074ZM344.885 169.938V185.648H340.936V162.4H344.517L352.884 175.442L361.217 162.4H364.765V185.648H360.816V169.905L352.884 182.18L344.885 169.938ZM375.247 185.648V169.938L383.246 182.18L391.178 169.905V185.648H395.127V162.4H391.579L383.246 175.442L374.879 162.4H371.298V185.648H375.247ZM404.103 183.614C402.329 182.013 401.459 179.711 401.459 176.743V162.4H405.642V176.309C405.642 180.312 407.617 182.246 410.93 182.246C414.177 182.246 416.185 180.312 416.185 176.309V162.4H420.369V176.743C420.369 179.711 419.498 182.013 417.725 183.614C415.951 185.215 413.708 186.015 410.93 186.015C408.153 186.015 405.877 185.215 404.103 183.614ZM430.744 185.648V169.205L443.362 185.648H446.775V162.4H442.726V178.544L430.376 162.4H426.694V185.648H430.744ZM457.583 162.4V185.648H453.399V162.4H457.583ZM472.847 185.648V166.169H479.173V162.4H462.338V166.169H468.664V185.648H472.847ZM494.333 176.643V185.648H490.183V176.643L481.782 162.4H486.3L492.291 172.64L498.249 162.4H502.733L494.333 176.643ZM528.041 185.648C531.89 185.648 534.902 184.581 537.044 182.48C539.186 180.378 540.257 177.577 540.257 174.074C540.257 170.572 539.186 167.77 537.01 165.636C534.868 163.468 531.856 162.4 528.007 162.4H519.674V185.648H528.041ZM523.857 166.169H527.706C533.563 166.169 536.073 169.171 536.073 174.074C536.073 178.844 533.53 181.879 527.74 181.879H523.857V166.169ZM549.876 162.4V185.648H545.692V162.4H549.876ZM560.722 185.648V177.376H564.805H564.872L569.859 185.648H574.578L568.922 176.376C571.466 175.309 573.173 172.807 573.173 169.772C573.173 167.67 572.436 165.936 570.964 164.535C569.491 163.101 567.717 162.4 565.609 162.4H556.539V185.648H560.722ZM560.722 166.169H565.508C567.516 166.169 569.022 167.704 569.022 169.838C569.022 172.073 567.449 173.641 565.174 173.641H560.722V166.169ZM594.249 181.879V185.648H579.155V162.4H594.015V166.169H583.338V171.706H593.345V175.475H583.338V181.879H594.249ZM610.987 162C607.54 162 604.595 163.134 602.185 165.436C599.809 167.737 598.604 170.605 598.604 174.041C598.604 177.477 599.809 180.345 602.185 182.647C604.595 184.915 607.54 186.049 610.987 186.049C614.635 186.049 617.982 184.481 620.258 181.813L617.447 179.378C615.807 181.312 613.631 182.28 610.987 182.28C608.645 182.28 606.67 181.512 605.097 179.945C603.524 178.377 602.754 176.409 602.754 174.041C602.754 171.673 603.524 169.705 605.097 168.137C606.67 166.57 608.645 165.769 610.987 165.769C613.564 165.769 615.706 166.703 617.38 168.604L620.225 166.169C617.781 163.401 614.702 162 610.987 162ZM633.674 166.169V185.648H629.491V166.169H623.165V162.4H640V166.169H633.674ZM386.43 204.885C382.983 204.885 380.038 206.019 377.628 208.32C375.252 210.622 374.047 213.49 374.047 216.926C374.047 220.361 375.252 223.23 377.628 225.531C380.038 227.799 382.983 228.933 386.43 228.933C390.078 228.933 393.425 227.366 395.701 224.697L392.889 222.262C391.249 224.197 389.074 225.164 386.43 225.164C384.087 225.164 382.113 224.397 380.54 222.829C378.967 221.262 378.197 219.294 378.197 216.926C378.197 214.557 378.967 212.59 380.54 211.022C382.113 209.454 384.087 208.654 386.43 208.654C389.007 208.654 391.149 209.588 392.822 211.489L395.667 209.054C393.224 206.285 390.145 204.885 386.43 204.885ZM420.166 225.531C417.79 227.833 414.845 229 411.398 229C407.95 229 405.039 227.833 402.662 225.531C400.286 223.23 399.081 220.361 399.081 216.959C399.081 213.557 400.286 210.688 402.662 208.387C405.039 206.052 407.95 204.885 411.398 204.885C414.845 204.885 417.757 206.052 420.133 208.387C422.543 210.688 423.748 213.557 423.748 216.959C423.748 220.361 422.543 223.23 420.166 225.531ZM405.541 211.055C403.968 212.656 403.198 214.624 403.198 216.959C403.198 219.327 403.968 221.295 405.541 222.863C407.114 224.43 409.088 225.231 411.398 225.231C413.707 225.231 415.648 224.43 417.221 222.863C418.794 221.262 419.597 219.294 419.597 216.959C419.597 214.624 418.794 212.656 417.221 211.055C415.648 209.454 413.707 208.654 411.398 208.654C409.088 208.654 407.114 209.454 405.541 211.055ZM438.693 228.533L448.332 205.285H443.914L436.953 222.396L429.991 205.285H425.573L435.212 228.533H438.693ZM457.321 205.285V228.533H453.138V205.285H457.321ZM472.351 228.533C476.2 228.533 479.212 227.466 481.354 225.364C483.496 223.263 484.567 220.461 484.567 216.959C484.567 213.457 483.496 210.655 481.321 208.52C479.179 206.352 476.167 205.285 472.318 205.285H463.984V228.533H472.351ZM468.168 209.054H472.017C477.874 209.054 480.384 212.056 480.384 216.959C480.384 221.729 477.84 224.764 472.05 224.764H468.168V209.054ZM509.875 209.054V228.533H505.692V209.054H499.366V205.285H516.201V209.054H509.875ZM535.879 228.533V224.764H524.969V218.36H534.976V214.591H524.969V209.054H535.645V205.285H520.785V228.533H535.879ZM548.699 228.933C544.381 228.933 541.202 226.932 539.729 223.63L542.875 221.662C544.08 224.03 546.021 225.198 548.732 225.198C551.644 225.198 552.681 223.663 552.681 222.162C552.681 221.128 552.313 220.428 551.343 219.794C550.372 219.127 549.669 218.827 547.929 218.193C545.787 217.393 544.549 216.792 543.21 215.725C541.871 214.624 541.235 213.123 541.235 211.155C541.235 209.287 541.938 207.786 543.31 206.619C544.716 205.452 546.423 204.885 548.464 204.885C551.644 204.885 554.054 206.152 555.66 208.654L552.681 210.688C551.778 209.321 550.406 208.62 548.531 208.62C546.691 208.62 545.352 209.654 545.352 211.089C545.352 212.056 545.754 212.523 546.322 213.09C546.563 213.264 547.047 213.496 547.475 213.701C547.702 213.809 547.912 213.91 548.063 213.99L549.268 214.457L550.64 214.991C552.849 215.892 554.422 216.859 555.392 217.893C556.363 218.927 556.865 220.328 556.865 222.062C556.865 226.165 554.02 228.933 548.699 228.933ZM569.814 228.533V209.054H576.139V205.285H559.305V209.054H565.63V228.533H569.814ZM585.041 205.285V228.533H580.857V205.285H585.041ZM595.754 228.533V212.089L608.371 228.533H611.785V205.285H607.735V221.428L595.386 205.285H591.704V228.533H595.754ZM620.618 208.32C623.027 206.019 625.973 204.885 629.42 204.885C632.867 204.885 635.745 206.052 638.088 208.387L635.31 210.922C633.737 209.421 631.796 208.654 629.42 208.654C627.077 208.654 625.102 209.454 623.529 211.022C621.956 212.59 621.187 214.557 621.187 216.926C621.187 219.294 621.956 221.262 623.529 222.829C625.102 224.397 627.077 225.164 629.42 225.164C631.629 225.164 633.503 224.497 635.009 223.163V218.894H628.516V215.191H638.958V224.564C636.716 227.266 633.269 228.933 629.42 228.933C625.973 228.933 623.027 227.799 620.618 225.531C618.241 223.23 617.036 220.361 617.036 216.926C617.036 213.49 618.241 210.622 620.618 208.32Z"
     clip-rule="evenodd"
     fill-rule="evenodd" />
</svg>
